<svg width="1200" height="1200" viewBox="0 0 1200 1200" fill="none" xmlns="http://www.w3.org/2000/svg">
<path d="M596.41 993.321C598.406 996.08 602.516 996.08 604.512 993.321L708.531 849.531C709.23 848.564 709.561 847.378 709.462 846.188L652.207 154.357C651.993 151.764 649.826 149.769 647.224 149.769H556.887C554.295 149.769 552.132 151.751 551.906 154.334L491.47 846.176C491.365 847.373 491.695 848.568 492.399 849.542L596.41 993.321Z" fill="#BB0000"/>
<path d="M670.571 133.589C672.472 133.589 674.209 132.51 675.052 130.807L708.581 63.064C710.226 59.7407 707.808 55.846 704.1 55.846H501.973C498.247 55.846 495.83 59.7744 497.51 63.1001L531.723 130.843C532.574 132.527 534.3 133.589 536.186 133.589H670.571Z" fill="#BB0000"/>
<path d="M349.034 14.2906C351.349 488.838 420.833 744.182 572.469 1171.29C574.362 1176.62 567.442 1180.59 563.972 1176.12C207.108 716.357 -27.761 158.22 119.771 128.539C239.867 104.378 314.522 36.59 339.567 10.4569C342.829 7.05326 349.011 9.57617 349.034 14.2906Z" fill="#D9D9D9"/>
<path d="M851.889 14.2905C849.574 488.838 780.09 744.182 628.454 1171.29C626.561 1176.62 633.481 1180.59 636.95 1176.12C993.814 716.357 1228.68 158.22 1081.15 128.539C961.056 104.378 886.401 36.59 861.355 10.4569C858.093 7.05326 851.912 9.57617 851.889 14.2905Z" fill="#D9D9D9"/>
</svg>
