<svg width="1200" height="1200" viewBox="0 0 1200 1200" fill="none" xmlns="http://www.w3.org/2000/svg">
<rect width="1200" height="1200" transform="matrix(1 0 0 -1 0 1200)" fill="#D9D9D9"/>
<path d="M595.949 751.915C597.945 754.674 602.055 754.674 604.051 751.915L641.916 699.573C642.615 698.605 642.946 697.419 642.847 696.23L620.615 427.588C620.4 424.995 618.234 423 615.632 423H585.612C583.019 423 580.856 424.982 580.631 427.565L557.162 696.217C557.058 697.415 557.388 698.609 558.092 699.583L595.949 751.915Z" fill="#BB0000"/>
<path d="M625.738 416.626C627.639 416.626 629.375 415.548 630.219 413.844L640.427 393.218C642.072 389.895 639.654 386 635.946 386H566.127C562.401 386 559.984 389.928 561.664 393.254L572.081 413.88C572.931 415.564 574.657 416.626 576.544 416.626H625.738Z" fill="#BB0000"/>
<path d="M501.014 378.19C502.654 553.264 528.247 652.571 582.851 808.085C584.726 813.423 577.854 817.223 574.448 812.705C440.2 634.587 354.073 426.017 410.637 414.637C450.464 406.624 477.606 386.432 491.081 374.103C494.56 370.921 500.969 373.476 501.014 378.19Z" fill="#1E1E1E"/>
<path d="M698.986 378.19C697.346 553.264 671.753 652.571 617.149 808.085C615.274 813.423 622.146 817.223 625.552 812.705C759.8 634.587 845.927 426.017 789.363 414.637C749.536 406.624 722.394 386.432 708.919 374.103C705.44 370.921 699.031 373.476 698.986 378.19Z" fill="#1E1E1E"/>
</svg>
